# Blender 4.1.1
# www.blender.org
mtllib sword slash.mtl
o Circle
v -0.326966 0.000000 -1.682092
v -1.682092 0.000000 0.326965
v 0.326966 0.000000 1.682092
v -0.085140 0.000000 -0.438008
v -1.679174 0.000000 -0.341632
v -1.420618 0.000000 -0.958219
v -0.945785 0.000000 -1.428926
v -0.341632 0.000000 1.679174
v -0.958219 0.000000 1.420618
v -1.428926 0.000000 0.945785
v 0.945785 0.000000 1.428926
v 0.341632 0.000000 -1.679174
v 0.958219 0.000000 -1.420618
v -0.438008 0.000000 0.085140
v 0.085140 0.000000 0.438008
v -0.437249 0.000000 -0.088959
v -0.369922 0.000000 -0.249516
v -0.246278 0.000000 -0.372085
v -0.088959 0.000000 0.437249
v -0.249515 0.000000 0.369922
v -0.372085 0.000000 0.246278
v 0.246278 0.000000 0.372085
v 0.088959 0.000000 -0.437249
v 0.249516 0.000000 -0.369922
v -1.713449 0.000000 -0.007476
v -1.580159 0.000000 -0.662616
v -1.206304 0.000000 -1.216878
v -0.648801 0.000000 -1.585881
v -0.007476 0.000000 1.713449
v -0.662616 0.000000 1.580159
v -1.216878 0.000000 1.206304
v -1.585881 0.000000 0.648801
v 1.206304 0.000000 1.216878
v 0.648801 0.000000 1.585881
v 0.007476 0.000000 -1.713449
v 0.662616 0.000000 -1.580159
v 1.216878 0.000000 -1.206304
v 0.316869 0.000000 -0.314116
v 0.172542 0.000000 -0.411466
v 0.001947 0.000000 -0.446174
v 0.168945 0.000000 0.412956
v 0.314116 0.000000 0.316869
v -0.412956 0.000000 0.168945
v -0.316869 0.000000 0.314116
v -0.172542 0.000000 0.411466
v -0.001947 0.000000 0.446173
v -0.168945 0.000000 -0.412956
v -0.314116 0.000000 -0.316869
v -0.411466 0.000000 -0.172542
v -0.446174 0.000000 -0.001947
vn -0.0000 1.0000 -0.0000
vt 0.538006 0.003250
vt 0.497219 0.003250
vt 0.497219 0.997127
vt 0.538007 0.997127
vt 0.334068 0.997127
vt 0.334068 0.003250
vt 0.293280 0.003250
vt 0.293280 0.997127
vt 0.252493 0.003250
vt 0.252493 0.997127
vt 0.456431 0.003250
vt 0.456431 0.997127
vt 0.619582 0.003250
vt 0.578794 0.003250
vt 0.578794 0.997127
vt 0.619582 0.997127
vt 0.211705 0.003250
vt 0.211705 0.997127
vt 0.945884 0.003250
vt 0.905096 0.003250
vt 0.905096 0.997127
vt 0.945884 0.997127
vt 0.048554 0.003250
vt 0.007767 0.003250
vt 0.007767 0.997127
vt 0.048554 0.997127
vt 0.864308 0.003250
vt 0.864308 0.997127
vt 0.415643 0.003250
vt 0.415644 0.997127
vt 0.701157 0.003250
vt 0.660370 0.003250
vt 0.660370 0.997127
vt 0.701157 0.997127
vt 0.374856 0.003250
vt 0.374856 0.997127
vt 0.130130 0.003250
vt 0.089342 0.003250
vt 0.089342 0.997127
vt 0.130130 0.997127
vt 0.782733 0.003250
vt 0.741945 0.003250
vt 0.741945 0.997127
vt 0.782733 0.997127
vt 0.986671 0.997127
vt 0.986671 0.003250
vt 0.170917 0.003250
vt 0.170917 0.997127
vt 0.823520 0.003250
vt 0.823521 0.997127
s 0
f 14/1/1 50/2/1 25/3/1 2/4/1
f 27/5/1 48/6/1 18/7/1 7/8/1
f 18/7/1 47/9/1 28/10/1 7/8/1
f 25/3/1 50/2/1 16/11/1 5/12/1
f 21/13/1 43/14/1 32/15/1 10/16/1
f 28/10/1 47/9/1 4/17/1 1/18/1
f 22/19/1 41/20/1 34/21/1 11/22/1
f 32/15/1 43/14/1 14/1/1 2/4/1
f 24/23/1 38/24/1 37/25/1 13/26/1
f 34/21/1 41/20/1 15/27/1 3/28/1
f 16/11/1 49/29/1 26/30/1 5/12/1
f 20/31/1 44/32/1 31/33/1 9/34/1
f 26/30/1 49/29/1 17/35/1 6/36/1
f 31/33/1 44/32/1 21/13/1 10/16/1
f 23/37/1 39/38/1 36/39/1 12/40/1
f 36/39/1 39/38/1 24/23/1 13/26/1
f 19/41/1 45/42/1 30/43/1 8/44/1
f 33/45/1 42/46/1 22/19/1 11/22/1
f 30/43/1 45/42/1 20/31/1 9/34/1
f 1/18/1 4/17/1 40/47/1 35/48/1
f 35/48/1 40/47/1 23/37/1 12/40/1
f 3/28/1 15/27/1 46/49/1 29/50/1
f 29/50/1 46/49/1 19/41/1 8/44/1
f 17/35/1 48/6/1 27/5/1 6/36/1
