# Blender 4.1.1
# www.blender.org
o Cube
v 1.000000 -1.000000 1.000000
v -1.000000 1.000000 1.000000
v -1.000000 -1.000000 1.000000
v 1.000000 -0.796622 1.000000
v -0.796622 1.000000 1.000000
v 0.775422 -0.796622 1.000000
v 0.775422 -0.572044 1.000000
v 0.550844 -0.572044 1.000000
v 0.550844 -0.347467 1.000000
v 0.326267 -0.347467 1.000000
v 0.326267 -0.122889 1.000000
v 0.101689 -0.122889 1.000000
v 0.101689 0.101689 1.000000
v -0.122889 0.101689 1.000000
v -0.122889 0.326267 1.000000
v -0.347467 0.326267 1.000000
v -0.347467 0.550844 1.000000
v -0.572044 0.550844 1.000000
v -0.572044 0.775422 1.000000
v -0.796622 0.775422 1.000000
v -1.000000 -1.000000 0.000000
v -1.000000 1.000000 0.000000
v 1.000000 -1.000000 0.000000
v -0.796622 1.000000 0.000000
v -0.796622 0.775422 0.000000
v -0.572044 0.775422 0.000000
v -0.572044 0.550844 0.000000
v -0.347467 0.550844 0.000000
v -0.347467 0.326267 0.000000
v -0.122889 0.326267 0.000000
v -0.122889 0.101689 0.000000
v 0.101689 0.101689 0.000000
v 0.101689 -0.122889 0.000000
v 0.326267 -0.122889 0.000000
v 0.326267 -0.347467 0.000000
v 0.550844 -0.347467 0.000000
v 0.550844 -0.572044 0.000000
v 0.775422 -0.572044 0.000000
v 0.775422 -0.796622 0.000000
v 1.000000 -0.796622 0.000000
v -1.000000 -1.000000 1.259368
v -1.000000 1.000000 1.259368
v 1.000000 -1.000000 1.259368
v -0.796622 1.000000 1.259368
v -0.796622 0.775422 1.259368
v -0.572044 0.775422 1.259368
v -0.572044 0.550844 1.259368
v -0.347467 0.550844 1.259368
v -0.347467 0.326267 1.259368
v -0.122889 0.326267 1.259368
v -0.122889 0.101689 1.259368
v 0.101689 0.101689 1.259368
v 0.101689 -0.122889 1.259368
v 0.326267 -0.122889 1.259368
v 0.326267 -0.347467 1.259368
v 0.550844 -0.347467 1.259368
v 0.550844 -0.572044 1.259368
v 0.775422 -0.572044 1.259368
v 0.775422 -0.796622 1.259368
v 1.000000 -0.796622 1.259368
v -0.159170 1.000000 1.000000
v -0.159170 0.775422 1.000000
v 0.065408 0.775422 1.000000
v 0.065408 0.550844 1.000000
v 0.289986 0.550844 1.000000
v 0.289986 0.326267 1.000000
v 0.514563 0.326267 1.000000
v 0.514563 0.101689 1.000000
v 0.739141 0.101689 1.000000
v 0.739141 -0.122889 1.000000
v 0.963719 -0.122889 1.000000
v 0.963719 -0.347467 1.000000
v 1.188297 -0.347467 1.000000
v 1.188297 -0.572044 1.000000
v 1.412874 -0.572044 1.000000
v 1.412874 -0.796622 1.000000
v 1.412452 -0.796622 1.000000
v 1.412452 -1.000000 1.000000
v 1.188297 -0.347467 1.259368
v 0.289986 0.550844 1.259368
v 0.963719 -0.347467 1.259368
v 0.963719 -0.122889 1.259368
v -0.159170 1.000000 1.259368
v 0.065408 0.550844 1.259368
v 0.065408 0.775422 1.259368
v -0.159170 0.775422 1.259368
v 0.289986 0.326267 1.259368
v 0.514563 0.326267 1.259368
v 0.514563 0.101689 1.259368
v 0.739141 0.101689 1.259368
v 0.739141 -0.122889 1.259368
v 1.188297 -0.572044 1.259368
v 1.412874 -0.572044 1.259368
v 1.412874 -0.796622 1.259368
v 1.412452 -0.796622 1.259368
v 1.412452 -1.000000 1.259368
v -1.000000 1.194405 1.000000
v -0.796622 1.194405 1.000000
v -0.796622 1.194405 1.259368
v -1.000000 1.194405 1.259368
v -0.159170 1.194405 1.259368
v -0.159170 1.194405 1.000000
v 1.000000 -1.000000 -1.000000
v -1.000000 1.000000 -1.000000
v -1.000000 -1.000000 -1.000000
v 1.000000 -0.796622 -1.000000
v -0.796622 1.000000 -1.000000
v 0.775422 -0.796622 -1.000000
v 0.775422 -0.572044 -1.000000
v 0.550844 -0.572044 -1.000000
v 0.550844 -0.347467 -1.000000
v 0.326267 -0.347467 -1.000000
v 0.326267 -0.122889 -1.000000
v 0.101689 -0.122889 -1.000000
v 0.101689 0.101689 -1.000000
v -0.122889 0.101689 -1.000000
v -0.122889 0.326267 -1.000000
v -0.347467 0.326267 -1.000000
v -0.347467 0.550844 -1.000000
v -0.572044 0.550844 -1.000000
v -0.572044 0.775422 -1.000000
v -0.796622 0.775422 -1.000000
v -1.000000 -1.000000 -1.259368
v -1.000000 1.000000 -1.259368
v 1.000000 -1.000000 -1.259368
v -0.796622 1.000000 -1.259368
v -0.796622 0.775422 -1.259368
v -0.572044 0.775422 -1.259368
v -0.572044 0.550844 -1.259368
v -0.347467 0.550844 -1.259368
v -0.347467 0.326267 -1.259368
v -0.122889 0.326267 -1.259368
v -0.122889 0.101689 -1.259368
v 0.101689 0.101689 -1.259368
v 0.101689 -0.122889 -1.259368
v 0.326267 -0.122889 -1.259368
v 0.326267 -0.347467 -1.259368
v 0.550844 -0.347467 -1.259368
v 0.550844 -0.572044 -1.259368
v 0.775422 -0.572044 -1.259368
v 0.775422 -0.796622 -1.259368
v 1.000000 -0.796622 -1.259368
v -0.159170 1.000000 -1.000000
v -0.159170 0.775422 -1.000000
v 0.065408 0.775422 -1.000000
v 0.065408 0.550844 -1.000000
v 0.289986 0.550844 -1.000000
v 0.289986 0.326267 -1.000000
v 0.514563 0.326267 -1.000000
v 0.514563 0.101689 -1.000000
v 0.739141 0.101689 -1.000000
v 0.739141 -0.122889 -1.000000
v 0.963719 -0.122889 -1.000000
v 0.963719 -0.347467 -1.000000
v 1.188297 -0.347467 -1.000000
v 1.188297 -0.572044 -1.000000
v 1.412874 -0.572044 -1.000000
v 1.412874 -0.796622 -1.000000
v 1.412452 -0.796622 -1.000000
v 1.412452 -1.000000 -1.000000
v 1.188297 -0.347467 -1.259368
v 0.289986 0.550844 -1.259368
v 0.963719 -0.347467 -1.259368
v 0.963719 -0.122889 -1.259368
v -0.159170 1.000000 -1.259368
v 0.065408 0.550844 -1.259368
v 0.065408 0.775422 -1.259368
v -0.159170 0.775422 -1.259368
v 0.289986 0.326267 -1.259368
v 0.514563 0.326267 -1.259368
v 0.514563 0.101689 -1.259368
v 0.739141 0.101689 -1.259368
v 0.739141 -0.122889 -1.259368
v 1.188297 -0.572044 -1.259368
v 1.412874 -0.572044 -1.259368
v 1.412874 -0.796622 -1.259368
v 1.412452 -0.796622 -1.259368
v 1.412452 -1.000000 -1.259368
v -1.000000 1.194405 -1.000000
v -0.796622 1.194405 -1.000000
v -0.796622 1.194405 -1.259368
v -1.000000 1.194405 -1.259368
v -0.159170 1.194405 -1.259368
v -0.159170 1.194405 -1.000000
vn -0.0000 -1.0000 -0.0000
vn -0.0000 1.0000 -0.0000
vn 1.0000 -0.0000 -0.0000
vn -1.0000 -0.0000 -0.0000
vn -0.0000 -0.0000 -1.0000
vn -0.0000 -0.0000 1.0000
vt 0.125000 0.625000
vt 0.375000 0.625000
vt 0.375000 0.750000
vt 0.125000 0.750000
vt 0.849578 0.625000
vt 0.875000 0.625000
vt 0.875000 0.750000
vt 0.849578 0.750000
vt 0.400422 0.625000
vt 0.400422 0.750000
vt 0.821506 0.750000
vt 0.821506 0.625000
vt 0.793433 0.750000
vt 0.793433 0.625000
vt 0.765361 0.750000
vt 0.765361 0.625000
vt 0.625000 0.750000
vt 0.625000 0.625000
vt 0.484639 0.750000
vt 0.484639 0.625000
vt 0.456567 0.750000
vt 0.456567 0.625000
vt 0.428494 0.750000
vt 0.428494 0.625000
vt 0.375000 0.000000
vt 0.625000 0.000000
vt 0.625000 0.125000
vt 0.375000 0.125000
s 0
f 21/1/1 23/2/1 1/3/1 3/4/1
f 24/5/2 22/6/2 2/7/2 5/8/2
f 23/2/3 40/9/3 4/10/3 1/3/3
f 24/5/3 5/8/3 20/8/3 25/5/3
f 25/5/2 20/8/2 19/11/2 26/12/2
f 26/12/3 19/11/3 18/11/3 27/12/3
f 27/12/2 18/11/2 17/13/2 28/14/2
f 28/14/3 17/13/3 16/13/3 29/14/3
f 29/14/2 16/13/2 15/15/2 30/16/2
f 30/16/3 15/15/3 14/15/3 31/16/3
f 31/16/2 14/15/2 13/17/2 32/18/2
f 32/18/3 13/17/3 12/19/3 33/20/3
f 33/20/2 12/19/2 11/19/2 34/20/2
f 34/20/3 11/19/3 10/21/3 35/22/3
f 35/22/2 10/21/2 9/21/2 36/22/2
f 36/22/3 9/21/3 8/23/3 37/24/3
f 37/24/2 8/23/2 7/23/2 38/24/2
f 38/24/3 7/23/3 6/10/3 39/9/3
f 39/9/2 6/10/2 4/10/2 40/9/2
f 3/25/4 2/26/4 22/27/4 21/28/4
f 15/15/2 16/13/2 49/13/2 50/15/2
f 51/15/1 14/15/1 68/15/1 89/15/1
f 2/26/4 3/25/4 41/25/4 42/26/4
f 16/13/5 17/13/5 65/13/5 66/13/5
f 9/21/2 10/21/2 55/21/2 56/21/2
f 17/13/2 18/11/2 47/11/2 48/13/2
f 7/23/2 58/23/2 93/23/2 75/23/2
f 44/8/6 83/8/6 101/8/6 99/8/6
f 48/13/6 49/13/6 87/13/6 80/13/6
f 41/25/6 45/8/6 44/8/6 42/7/6
f 46/11/6 45/8/6 41/25/6 47/11/6
f 48/13/6 47/11/6 41/25/6 49/13/6
f 50/15/6 49/13/6 41/25/6 51/15/6
f 52/17/6 51/15/6 41/25/6 53/19/6
f 54/19/6 53/19/6 41/25/6 55/21/6
f 56/21/6 55/21/6 41/25/6 57/23/6
f 58/23/6 57/23/6 41/25/6 59/10/6
f 43/3/6 60/10/6 59/10/6 41/25/6
f 3/4/1 1/3/1 43/3/1 41/4/1
f 7/23/2 8/23/2 57/23/2 58/23/2
f 1/3/5 4/10/5 77/10/5 78/3/5
f 43/3/1 1/3/1 78/3/1 96/3/1
f 13/17/2 14/15/2 51/15/2 52/17/2
f 18/11/5 19/11/5 63/11/5 64/11/5
f 4/10/2 6/10/2 59/10/2 60/10/2
f 60/10/6 43/3/6 96/3/6 95/10/6
f 19/11/2 20/8/2 45/8/2 46/11/2
f 15/15/2 50/15/2 88/15/2 67/15/2
f 11/19/2 12/19/2 53/19/2 54/19/2
f 74/23/3 73/21/3 79/21/3 92/23/3
f 66/13/3 65/13/3 80/13/3 87/13/3
f 72/21/3 71/19/3 82/19/3 81/21/3
f 64/11/3 63/11/3 85/11/3 84/11/3
f 68/15/3 67/15/3 88/15/3 89/15/3
f 76/10/3 75/23/3 93/23/3 94/10/3
f 62/8/3 61/8/3 83/8/3 86/8/3
f 70/19/3 69/17/3 90/17/3 91/19/3
f 78/3/3 77/10/3 95/10/3 96/3/3
f 9/21/2 56/21/2 79/21/2 73/21/2
f 50/15/6 51/15/6 89/15/6 88/15/6
f 59/10/1 6/10/1 76/10/1 94/10/1
f 17/13/2 48/13/2 80/13/2 65/13/2
f 14/15/5 15/15/5 67/15/5 68/15/5
f 13/17/2 52/17/2 90/17/2 69/17/2
f 55/21/1 10/21/1 72/21/1 81/21/1
f 52/17/6 53/19/6 91/19/6 90/17/6
f 45/8/1 20/8/1 62/8/1 86/8/1
f 11/19/2 54/19/2 82/19/2 71/19/2
f 12/19/5 13/17/5 69/17/5 70/19/5
f 4/10/2 60/10/2 95/10/2 77/10/2
f 83/8/3 61/8/3 102/8/3 101/8/3
f 54/19/6 55/21/6 81/21/6 82/19/6
f 53/19/1 12/19/1 70/19/1 91/19/1
f 10/21/5 11/19/5 71/19/5 72/21/5
f 47/11/1 18/11/1 64/11/1 84/11/1
f 56/21/6 57/23/6 92/23/6 79/21/6
f 49/13/1 16/13/1 66/13/1 87/13/1
f 19/11/2 46/11/2 85/11/2 63/11/2
f 8/23/5 9/21/5 73/21/5 74/23/5
f 44/8/6 45/8/6 86/8/6 83/8/6
f 58/23/6 59/10/6 94/10/6 93/23/6
f 20/8/5 5/8/5 61/8/5 62/8/5
f 57/23/1 8/23/1 74/23/1 92/23/1
f 6/10/5 7/23/5 75/23/5 76/10/5
f 46/11/6 47/11/6 84/11/6 85/11/6
f 98/8/2 97/7/2 100/7/2 99/8/2
f 98/8/2 99/8/2 101/8/2 102/8/2
f 2/26/4 42/26/4 100/26/4 97/26/4
f 61/8/5 5/8/5 98/8/5 102/8/5
f 5/8/5 2/7/5 97/7/5 98/8/5
f 42/7/6 44/8/6 99/8/6 100/7/6
f 21/1/1 105/4/1 103/3/1 23/2/1
f 24/5/2 107/8/2 104/7/2 22/6/2
f 23/2/3 103/3/3 106/10/3 40/9/3
f 24/5/3 25/5/3 122/8/3 107/8/3
f 25/5/2 26/12/2 121/11/2 122/8/2
f 26/12/3 27/12/3 120/11/3 121/11/3
f 27/12/2 28/14/2 119/13/2 120/11/2
f 28/14/3 29/14/3 118/13/3 119/13/3
f 29/14/2 30/16/2 117/15/2 118/13/2
f 30/16/3 31/16/3 116/15/3 117/15/3
f 31/16/2 32/18/2 115/17/2 116/15/2
f 32/18/3 33/20/3 114/19/3 115/17/3
f 33/20/2 34/20/2 113/19/2 114/19/2
f 34/20/3 35/22/3 112/21/3 113/19/3
f 35/22/2 36/22/2 111/21/2 112/21/2
f 36/22/3 37/24/3 110/23/3 111/21/3
f 37/24/2 38/24/2 109/23/2 110/23/2
f 38/24/3 39/9/3 108/10/3 109/23/3
f 39/9/2 40/9/2 106/10/2 108/10/2
f 105/25/4 21/28/4 22/27/4 104/26/4
f 117/15/2 132/15/2 131/13/2 118/13/2
f 133/15/1 171/15/1 150/15/1 116/15/1
f 104/26/4 124/26/4 123/25/4 105/25/4
f 118/13/6 148/13/6 147/13/6 119/13/6
f 111/21/2 138/21/2 137/21/2 112/21/2
f 119/13/2 130/13/2 129/11/2 120/11/2
f 109/23/2 157/23/2 175/23/2 140/23/2
f 126/8/5 181/8/5 183/8/5 165/8/5
f 130/13/5 162/13/5 169/13/5 131/13/5
f 123/25/5 124/7/5 126/8/5 127/8/5
f 128/11/5 129/11/5 123/25/5 127/8/5
f 130/13/5 131/13/5 123/25/5 129/11/5
f 132/15/5 133/15/5 123/25/5 131/13/5
f 134/17/5 135/19/5 123/25/5 133/15/5
f 136/19/5 137/21/5 123/25/5 135/19/5
f 138/21/5 139/23/5 123/25/5 137/21/5
f 140/23/5 141/10/5 123/25/5 139/23/5
f 125/3/5 123/25/5 141/10/5 142/10/5
f 105/4/1 123/4/1 125/3/1 103/3/1
f 109/23/2 140/23/2 139/23/2 110/23/2
f 103/3/6 160/3/6 159/10/6 106/10/6
f 125/3/1 178/3/1 160/3/1 103/3/1
f 115/17/2 134/17/2 133/15/2 116/15/2
f 120/11/6 146/11/6 145/11/6 121/11/6
f 106/10/2 142/10/2 141/10/2 108/10/2
f 142/10/5 177/10/5 178/3/5 125/3/5
f 121/11/2 128/11/2 127/8/2 122/8/2
f 117/15/2 149/15/2 170/15/2 132/15/2
f 113/19/2 136/19/2 135/19/2 114/19/2
f 156/23/3 174/23/3 161/21/3 155/21/3
f 148/13/3 169/13/3 162/13/3 147/13/3
f 154/21/3 163/21/3 164/19/3 153/19/3
f 146/11/3 166/11/3 167/11/3 145/11/3
f 150/15/3 171/15/3 170/15/3 149/15/3
f 158/10/3 176/10/3 175/23/3 157/23/3
f 144/8/3 168/8/3 165/8/3 143/8/3
f 152/19/3 173/19/3 172/17/3 151/17/3
f 160/3/3 178/3/3 177/10/3 159/10/3
f 111/21/2 155/21/2 161/21/2 138/21/2
f 132/15/5 170/15/5 171/15/5 133/15/5
f 141/10/1 176/10/1 158/10/1 108/10/1
f 119/13/2 147/13/2 162/13/2 130/13/2
f 116/15/6 150/15/6 149/15/6 117/15/6
f 115/17/2 151/17/2 172/17/2 134/17/2
f 137/21/1 163/21/1 154/21/1 112/21/1
f 134/17/5 172/17/5 173/19/5 135/19/5
f 127/8/1 168/8/1 144/8/1 122/8/1
f 113/19/2 153/19/2 164/19/2 136/19/2
f 114/19/6 152/19/6 151/17/6 115/17/6
f 106/10/2 159/10/2 177/10/2 142/10/2
f 165/8/3 183/8/3 184/8/3 143/8/3
f 136/19/5 164/19/5 163/21/5 137/21/5
f 135/19/1 173/19/1 152/19/1 114/19/1
f 112/21/6 154/21/6 153/19/6 113/19/6
f 129/11/1 166/11/1 146/11/1 120/11/1
f 138/21/5 161/21/5 174/23/5 139/23/5
f 131/13/1 169/13/1 148/13/1 118/13/1
f 121/11/2 145/11/2 167/11/2 128/11/2
f 110/23/6 156/23/6 155/21/6 111/21/6
f 126/8/5 165/8/5 168/8/5 127/8/5
f 140/23/5 175/23/5 176/10/5 141/10/5
f 122/8/6 144/8/6 143/8/6 107/8/6
f 139/23/1 174/23/1 156/23/1 110/23/1
f 108/10/6 158/10/6 157/23/6 109/23/6
f 128/11/5 167/11/5 166/11/5 129/11/5
f 180/8/2 181/8/2 182/7/2 179/7/2
f 180/8/2 184/8/2 183/8/2 181/8/2
f 104/26/4 179/26/4 182/26/4 124/26/4
f 143/8/6 184/8/6 180/8/6 107/8/6
f 107/8/6 180/8/6 179/7/6 104/7/6
f 124/7/5 182/7/5 181/8/5 126/8/5
